<svg id="lupa" xmlns="http://www.w3.org/2000/svg" width="25.959" height="25.959" viewBox="0 0 25.959 25.959">
  <path id="Trazado_14560" data-name="Trazado 14560" d="M128.518,135.383a.506.506,0,0,0,.359-.149l4.381-4.381a.507.507,0,0,0,0-.717l-1.434-1.434a.507.507,0,0,0-.717,0l-2.589,2.589-.882-.883a.507.507,0,0,0-.717,0l-1.434,1.434a.507.507,0,0,0,0,.717l2.675,2.675A.505.505,0,0,0,128.518,135.383Zm-1.241-3.9.882.883a.507.507,0,0,0,.717,0l2.589-2.589.717.717-3.664,3.664L126.56,132.2Zm0,0" transform="translate(-118.981 -122.036)" fill="#28b67a"/>
  <path id="Trazado_14561" data-name="Trazado 14561" d="M94.825,280.787a.507.507,0,1,0-.722.713l.038.038a.507.507,0,1,0,.717-.717Zm0,0" transform="translate(-89.193 -266.407)" fill="#28b67a"/>
  <path id="Trazado_14562" data-name="Trazado 14562" d="M68.191,58.174a7.2,7.2,0,0,0-11.509,8.358.507.507,0,0,0,.9-.46,6.186,6.186,0,1,1,2.907,2.8.507.507,0,0,0-.427.92,7.2,7.2,0,0,0,8.126-11.622Zm0,0" transform="translate(-53.061 -53.226)" fill="#28b67a"/>
  <path id="Trazado_14563" data-name="Trazado 14563" d="M25.514,22.266l-6.943-6.943a10.047,10.047,0,1,0-3.249,3.249l6.943,6.943a1.523,1.523,0,0,0,2.151,0l1.1-1.1A1.523,1.523,0,0,0,25.514,22.266ZM1.014,10.039a9.025,9.025,0,1,1,9.025,9.025A9.035,9.035,0,0,1,1.014,10.039Zm16.97,6.13,1.122,1.122-1.815,1.815-1.122-1.122A10.124,10.124,0,0,0,17.984,16.169ZM24.8,23.7l-1.1,1.1a.508.508,0,0,1-.717,0l-4.974-4.974,1.815-1.815L24.8,22.983A.508.508,0,0,1,24.8,23.7Zm0,0" fill="#28b67a"/>
</svg>
