<svg id="atencion-al-cliente" xmlns="http://www.w3.org/2000/svg" width="25.959" height="25.995" viewBox="0 0 25.959 25.995">
  <path id="Trazado_14564" data-name="Trazado 14564" d="M28.972,17.042a7.673,7.673,0,0,0,13.065-5.412c.046-.654-.423-4.071-1.407-3.584a.464.464,0,0,0-.21.622,6.618,6.618,0,0,1,.689,2.962,6.7,6.7,0,0,1-1.835,4.6A5.307,5.307,0,0,0,36.151,13.2a2.86,2.86,0,1,0-3.535,0,5.307,5.307,0,0,0-3.125,3.034C23.7,9.62,32.692.892,39.139,6.875a.464.464,0,0,0,.656,0c.682-.664-1.547-1.844-2.038-2.112-7.8-3.678-14.782,6.087-8.785,12.279Zm3.479-6.083a1.933,1.933,0,1,1,1.933,1.933,1.933,1.933,0,0,1-1.933-1.933Zm1.933,2.86a4.355,4.355,0,0,1,4.146,3.1,6.693,6.693,0,0,1-8.294,0,4.355,4.355,0,0,1,4.147-3.1Z" transform="translate(-16.178 -3.958)" fill="#28b67a"/>
  <path id="Trazado_14565" data-name="Trazado 14565" d="M4.464,43.383H7.827a1.39,1.39,0,0,0,1.3-.914h.431a.987.987,0,0,1,.5.134l3.58,2.089a6.733,6.733,0,0,0,6.278.27l9.019-4.271a1.825,1.825,0,0,0-1.288-3.4L22.756,38.71a2.07,2.07,0,0,0-2.035-2.424H17.368a1.465,1.465,0,0,1-.786-.228l-1.658-1.052a4.317,4.317,0,0,0-2.317-.674H9.2A1.39,1.39,0,0,0,7.827,33.16H4.464A.464.464,0,0,0,4,33.624v9.3a.464.464,0,0,0,.464.464Zm.464-9.3h2.9a.459.459,0,0,1,.464.464c-.032.345.057.7.464.71,0-.007,3.849,0,3.853,0,1.193-.1,2.519,1.007,3.478,1.582a2.39,2.39,0,0,0,1.283.373h3.353a1.143,1.143,0,0,1,0,2.286h-4.8a.464.464,0,1,0,0,.928h4.8a2.059,2.059,0,0,0,1.424-.574l5.758-1.67a.9.9,0,0,1,.633,1.669l-9.019,4.271A5.806,5.806,0,0,1,14.1,43.89L10.522,41.8a2.272,2.272,0,0,0-1.3-.26V37.117a.464.464,0,1,0-.928,0v4.875a.464.464,0,0,1-.464.464h-2.9Z" transform="translate(-4 -19.615)" fill="#28b67a"/>
  <path id="Trazado_14566" data-name="Trazado 14566" d="M9.091,38.159a.464.464,0,1,0,.464.464.464.464,0,0,0-.464-.464Z" transform="translate(-6.481 -22.295)" fill="#28b67a"/>
</svg>
