<svg xmlns="http://www.w3.org/2000/svg" width="28.545" height="25.994" viewBox="0 0 28.545 25.994">
  <g id="correo-de-contacto" transform="translate(-5.88 -8.138)">
    <path id="Trazado_14567" data-name="Trazado 14567" d="M15.582,14.1H32.368L23.2,21.3a1.226,1.226,0,0,1-.635.247,1.249,1.249,0,0,1-.639-.247l-6.553-5.148a.7.7,0,0,0-.234-.125,2.557,2.557,0,0,0,.475-1.529,3.675,3.675,0,0,0-.03-.4ZM11.313,9.47a.639.639,0,0,1,.131.052,2.342,2.342,0,0,1,.619.508,8.164,8.164,0,0,1,1.178,1.791c.008.015.015.031.023.048a6.148,6.148,0,0,1,.994,2.652,1.03,1.03,0,0,1-.626,1.092l-1.245.718a2.731,2.731,0,0,0-1.29,2.085,3.454,3.454,0,0,0,.393,2.14l3.074,5.3a3.49,3.49,0,0,0,1.669,1.41,2.755,2.755,0,0,0,2.459-.07l1.245-.716a1.044,1.044,0,0,1,1.264.009,6.175,6.175,0,0,1,1.815,2.179c.01.018.019.032.03.049a8.2,8.2,0,0,1,.97,1.908,2.324,2.324,0,0,1,.133.786c-.015.164-.018.147-.062.173l-.948.543a7.256,7.256,0,0,1-6.512-.212,12.247,12.247,0,0,1-4.835-5s-.006-.01-.009-.013L9.19,22.429a.069.069,0,0,1-.01-.014,12.163,12.163,0,0,1-1.937-6.668,7.163,7.163,0,0,1,3.072-5.715l.948-.541c.022-.013.029-.022.049-.02Zm.01-1.332a1.413,1.413,0,0,0-.737.182l-1,.577-.064.039a8.631,8.631,0,0,0-3.63,6.754,13.426,13.426,0,0,0,2.133,7.428l2.584,4.453-.006-.013a13.491,13.491,0,0,0,5.4,5.55,8.725,8.725,0,0,0,7.7.249.514.514,0,0,0,.066-.033l1-.576a1.566,1.566,0,0,0,.735-1.227,3.319,3.319,0,0,0-.191-1.312,8.959,8.959,0,0,0-1.135-2.238A7.11,7.11,0,0,0,21.9,25.328a2.6,2.6,0,0,0-2.64-.02l-1.245.718a1.366,1.366,0,0,1-1.251,0,2.39,2.39,0,0,1-1.023-.843l-3.074-5.3a2.376,2.376,0,0,1-.222-1.305,1.345,1.345,0,0,1,.623-1.075l1.21-.7a.67.67,0,0,0,.256.408l6.553,5.149a2.574,2.574,0,0,0,1.44.551.715.715,0,0,0,.078,0,2.571,2.571,0,0,0,1.438-.551l9.026-7.091V26.985c0,.178-.2.413-.6.413H26.216a.675.675,0,1,0,0,1.35h6.248a1.874,1.874,0,0,0,1.96-1.763V14.514a1.873,1.873,0,0,0-1.96-1.763H15.21a12.025,12.025,0,0,0-.761-1.534,8.988,8.988,0,0,0-1.383-2.1A3.344,3.344,0,0,0,12.02,8.3v0a1.741,1.741,0,0,0-.7-.164Z" transform="translate(0)" fill="#28b67a"/>
  </g>
</svg>
