<svg xmlns="http://www.w3.org/2000/svg" width="57.935" height="39.501" viewBox="0 0 57.935 39.501">
  <path id="email_1_" data-name="email (1)" d="M91.082,107.61H41.573a4.214,4.214,0,0,0-4.213,4.213V142.9a4.213,4.213,0,0,0,4.213,4.213H91.082A4.213,4.213,0,0,0,95.3,142.9V111.823A4.214,4.214,0,0,0,91.082,107.61ZM66.328,130.9l-24.3-20.656h48.6ZM39.993,111.972l15.865,13.485L39.993,142.543Zm17.874,15.193,7.608,6.466a1.317,1.317,0,0,0,1.706,0l7.608-6.466,16.077,17.314H41.79ZM76.8,125.457l15.865-13.485v30.571Z" transform="translate(-37.36 -107.61)" fill="#77838f"/>
</svg>
