<svg xmlns="http://www.w3.org/2000/svg" width="28.804" height="28.87" viewBox="0 0 28.804 28.87">
  <g id="servicio-al-cliente" transform="translate(-0.572)">
    <g id="Grupo_6760" data-name="Grupo 6760" transform="translate(0.572 4.656)">
      <g id="Grupo_6759" data-name="Grupo 6759" transform="translate(0)">
        <path id="Trazado_14556" data-name="Trazado 14556" d="M23.976,100.489,22.9,97.254a3.26,3.26,0,0,0-2.509-2.176l-3.112-.566v-.241a4.686,4.686,0,0,0,1.388-1.233h.94a1.4,1.4,0,0,0,1.4-1.4V86.053a6.053,6.053,0,0,0-12.107,0v3.26a1.866,1.866,0,0,0,1.485,1.824,4.665,4.665,0,0,0,2.24,3.134v.241l-3.112.566A3.259,3.259,0,0,0,7,97.254l-.186.559L5.226,96.227a.467.467,0,0,1,0-.659L7.066,93.73,3.613,90.277,1.535,92.356a3.26,3.26,0,0,0,0,4.609l6.293,6.293a3.258,3.258,0,0,0,4.6.014l2.268-2.078-.707-.706ZM20.07,91.641a.466.466,0,0,1-.466.466h-.392a4.625,4.625,0,0,0,.3-.97,1.844,1.844,0,0,0,.554-.22ZM19.6,90.115v-1.6a.923.923,0,0,1,0,1.6Zm-9.313,0a.923.923,0,0,1,0-1.6Zm0-3.13v.532a1.847,1.847,0,0,0-.466.193V86.053a5.122,5.122,0,0,1,10.244,0v1.656a1.83,1.83,0,0,0-.466-.193v-.532h-.466a5.123,5.123,0,0,1-3.646-1.51l-.545-.545-.545.545a5.123,5.123,0,0,1-3.646,1.51Zm.931,3.26V87.9a6.037,6.037,0,0,0,3.725-1.655A6.035,6.035,0,0,0,18.673,87.9v2.346a3.7,3.7,0,0,1-.5,1.863H14.948v.931H17.4a3.719,3.719,0,0,1-6.181-2.794Zm5.122,4.442v.022l-1.4,1.4-1.4-1.4v-.022a4.653,4.653,0,0,0,2.794,0ZM7.881,97.548a2.329,2.329,0,0,1,1.792-1.555l3.255-.591,2.02,2.02L16.967,95.4l3.254.591a2.328,2.328,0,0,1,1.792,1.555l.67,2.008H13.052l-1.814-1.814L9.223,99.567a.476.476,0,0,1-.658,0L7.548,98.55ZM3.613,91.594,5.748,93.73l-.506.506L3.107,92.1ZM11.778,102.6a2.329,2.329,0,0,1-3.293,0L2.192,96.307a2.329,2.329,0,0,1,0-3.293l.256-.256,2.135,2.135-.017.017a1.4,1.4,0,0,0,0,1.976l3.339,3.339a1.39,1.39,0,0,0,.988.409,1.371,1.371,0,0,0,.971-.393l.035-.031,2.145,2.145Zm.955-.875-2.141-2.141.615-.556,2.137,2.137Z" transform="translate(-0.58 -80)" fill="#28b67a"/>
      </g>
    </g>
    <g id="Grupo_6762" data-name="Grupo 6762" transform="translate(20.063)">
      <g id="Grupo_6761" data-name="Grupo 6761">
        <path id="Trazado_14557" data-name="Trazado 14557" d="M343.344,0h-6.519a1.4,1.4,0,0,0-1.4,1.4V5.122a1.4,1.4,0,0,0,1.4,1.4h1.244l-.481,2.808,4.493-2.808h1.263a1.4,1.4,0,0,0,1.4-1.4V1.4A1.4,1.4,0,0,0,343.344,0Zm.466,5.122a.466.466,0,0,1-.466.466h-1.531l-2.957,1.848.317-1.848h-2.348a.466.466,0,0,1-.466-.466V1.4a.466.466,0,0,1,.466-.466h6.519a.466.466,0,0,1,.466.466Z" transform="translate(-335.428)" fill="#28b67a"/>
      </g>
    </g>
    <g id="Grupo_6764" data-name="Grupo 6764" transform="translate(21.925 1.863)">
      <g id="Grupo_6763" data-name="Grupo 6763">
        <rect id="Rectángulo_4792" data-name="Rectángulo 4792" width="5.588" height="0.931" fill="#28b67a"/>
      </g>
    </g>
    <g id="Grupo_6766" data-name="Grupo 6766" transform="translate(21.925 3.725)">
      <g id="Grupo_6765" data-name="Grupo 6765">
        <rect id="Rectángulo_4793" data-name="Rectángulo 4793" width="3.725" height="0.931" fill="#28b67a"/>
      </g>
    </g>
    <g id="Grupo_6768" data-name="Grupo 6768" transform="translate(26.582 3.725)">
      <g id="Grupo_6767" data-name="Grupo 6767">
        <rect id="Rectángulo_4794" data-name="Rectángulo 4794" width="0.931" height="0.931" fill="#28b67a"/>
      </g>
    </g>
    <g id="Grupo_6770" data-name="Grupo 6770" transform="translate(0.572 1.397)">
      <g id="Grupo_6769" data-name="Grupo 6769" transform="translate(0)">
        <path id="Trazado_14558" data-name="Trazado 14558" d="M14.941,24A13.03,13.03,0,0,0,2.253,34.079l-.882-1.471-.8.479,1.637,2.727,2.727-1.637-.479-.8-1.262.757a12.11,12.11,0,0,1,15.333-8.665l.276-.889A13.03,13.03,0,0,0,14.941,24Z" transform="translate(-0.572 -24)" fill="#28b67a"/>
      </g>
    </g>
    <g id="Grupo_6772" data-name="Grupo 6772" transform="translate(24.347 8.674)">
      <g id="Grupo_6771" data-name="Grupo 6771">
        <path id="Trazado_14559" data-name="Trazado 14559" d="M413.838,150.653l-2.727-1.637-1.636,2.728.8.479.815-1.358a12.117,12.117,0,0,1-2.052,11.536l.723.587a13.04,13.04,0,0,0,2.231-12.356l1.368.821Z" transform="translate(-409.036 -149.016)" fill="#28b67a"/>
      </g>
    </g>
  </g>
</svg>
