<svg id="Layer_2" data-name="Layer 2" xmlns="http://www.w3.org/2000/svg" width="38.799" height="38.799" viewBox="0 0 38.799 38.799">
  <path id="Trazado_14549" data-name="Trazado 14549" d="M31.477,40.049H9.822A8.583,8.583,0,0,1,1.25,31.477V9.822A8.583,8.583,0,0,1,9.822,1.25H31.477a8.583,8.583,0,0,1,8.572,8.572V31.477a8.583,8.583,0,0,1-8.572,8.572ZM9.822,3.957A5.872,5.872,0,0,0,3.957,9.822V31.477a5.872,5.872,0,0,0,5.865,5.865H31.477a5.872,5.872,0,0,0,5.865-5.865V9.822a5.872,5.872,0,0,0-5.865-5.865Z" transform="translate(-1.25 -1.25)" fill="#db0011"/>
  <path id="Trazado_14550" data-name="Trazado 14550" d="M14.483,21.555A1.353,1.353,0,0,1,13.13,20.2V18.862a4.248,4.248,0,0,1,2.579-3.923,3.088,3.088,0,0,0,1.045-.7,3.093,3.093,0,0,0,.854-1.119,2.844,2.844,0,0,0-.025-1.972,3.283,3.283,0,0,0-2-2.055,2.869,2.869,0,0,0-1.884.146,4.43,4.43,0,0,0-2.256,3.163A1.354,1.354,0,1,1,8.77,11.94a7.135,7.135,0,0,1,3.9-5.2,5.582,5.582,0,0,1,3.642-.251,5.975,5.975,0,0,1,3.837,3.79,5.528,5.528,0,0,1-.029,3.864,5.726,5.726,0,0,1-1.557,2.117,5.775,5.775,0,0,1-1.8,1.173,1.543,1.543,0,0,0-.926,1.429V20.2a1.353,1.353,0,0,1-1.344,1.353Z" transform="translate(4.784 2.807)" fill="#db0011"/>
  <ellipse id="Elipse_911" data-name="Elipse 911" cx="1.805" cy="1.805" rx="1.805" ry="1.805" transform="translate(17.595 25.715)" fill="#db0011"/>
</svg>
