<svg xmlns="http://www.w3.org/2000/svg" width="39.324" height="39.32" viewBox="0 0 39.324 39.32">
  <g id="Grupo_10894" data-name="Grupo 10894" transform="translate(0)">
    <path id="boligrafo" d="M34.808,1.553a5.415,5.415,0,0,0-7.652,0L25.241,3.479,4.852,23.858l-.043.044c-.01.01-.01.022-.022.022-.022.032-.054.065-.075.1,0,.011-.011.011-.011.022-.022.032-.032.054-.054.087-.01.011-.01.021-.021.032-.011.032-.022.054-.033.087,0,.01-.01.01-.01.022L.057,37.873a1.065,1.065,0,0,0,.26,1.1,1.089,1.089,0,0,0,.768.314,1.277,1.277,0,0,0,.346-.054L15.025,34.7c.01,0,.01,0,.022-.01a.392.392,0,0,0,.1-.044.038.038,0,0,0,.022-.01c.032-.022.075-.044.108-.065s.065-.054.1-.075c.011-.011.021-.011.021-.022s.033-.021.044-.043l22.3-22.3a5.415,5.415,0,0,0,0-7.651Zm-20.13,30.6L7.146,24.626,26,5.774l7.532,7.532Zm-8.593-5.53,6.58,6.58L2.785,36.5Zm30.13-16.017L35.067,11.77,27.535,4.237l1.158-1.158a3.246,3.246,0,0,1,4.588,0l2.943,2.943A3.257,3.257,0,0,1,36.215,10.611Zm0,0" transform="translate(0 0.029)" fill="#db0011"/>
  </g>
</svg>
